<?xml version="1.0" encoding="UTF-8"?><svg xmlns="http://www.w3.org/2000/svg" xmlns:xlink="http://www.w3.org/1999/xlink" fill-opacity="1" color-rendering="auto" color-interpolation="auto" text-rendering="auto" stroke="black" stroke-linecap="square" width="557" stroke-miterlimit="10" shape-rendering="auto" stroke-opacity="1" fill="black" stroke-dasharray="none" font-weight="normal" stroke-width="1" height="479" font-family="'Dialog'" font-style="normal" stroke-linejoin="miter" font-size="12px" stroke-dashoffset="0" image-rendering="auto">
  <!--Generated by ySVG 2.5-->
  <defs id="genericDefs"/>
  <g>
    <defs id="defs1">
      <linearGradient x1="657.0638" gradientUnits="userSpaceOnUse" x2="780.0638" y1="729.1945" y2="769.1945" id="linearGradient1" spreadMethod="reflect">
        <stop stop-opacity="1" stop-color="rgb(232,238,247)" offset="0%"/>
        <stop stop-opacity="1" stop-color="rgb(245,159,0)" offset="100%"/>
      </linearGradient>
      <linearGradient x1="404.5638" gradientUnits="userSpaceOnUse" x2="615.5638" y1="812.4738" y2="852.4738" id="linearGradient2" spreadMethod="reflect">
        <stop stop-opacity="1" stop-color="rgb(232,238,247)" offset="0%"/>
        <stop stop-opacity="1" stop-color="rgb(245,159,0)" offset="100%"/>
      </linearGradient>
      <linearGradient x1="807.0638" gradientUnits="userSpaceOnUse" x2="930.0638" y1="834.7531" y2="874.7531" id="linearGradient3" spreadMethod="reflect">
        <stop stop-opacity="1" stop-color="rgb(232,238,247)" offset="0%"/>
        <stop stop-opacity="1" stop-color="rgb(245,159,0)" offset="100%"/>
      </linearGradient>
      <linearGradient x1="641.5" gradientUnits="userSpaceOnUse" x2="795.5" y1="920.6661" y2="960.6661" id="linearGradient4" spreadMethod="reflect">
        <stop stop-opacity="1" stop-color="rgb(232,238,247)" offset="0%"/>
        <stop stop-opacity="1" stop-color="rgb(245,159,0)" offset="100%"/>
      </linearGradient>
      <linearGradient x1="637.5" gradientUnits="userSpaceOnUse" x2="802.5" y1="1000" y2="1040" id="linearGradient5" spreadMethod="reflect">
        <stop stop-opacity="1" stop-color="rgb(232,238,247)" offset="0%"/>
        <stop stop-opacity="1" stop-color="rgb(245,159,0)" offset="100%"/>
      </linearGradient>
      <linearGradient x1="638.3725" gradientUnits="userSpaceOnUse" x2="803.3725" y1="1120" y2="1160" id="linearGradient6" spreadMethod="reflect">
        <stop stop-opacity="1" stop-color="rgb(232,238,247)" offset="0%"/>
        <stop stop-opacity="1" stop-color="rgb(245,159,0)" offset="100%"/>
      </linearGradient>
      <clipPath clipPathUnits="userSpaceOnUse" id="clipPath1">
        <path d="M0 0 L557 0 L557 479 L0 479 L0 0 Z"/>
      </clipPath>
      <clipPath clipPathUnits="userSpaceOnUse" id="clipPath2">
        <path d="M0 0 L0 17 L45 17 L45 0 Z"/>
      </clipPath>
      <script type="text/ecmascript"><![CDATA[      var SVGDocument = null;
      var SVGRoot = null;
      var TrueCoords = null;
      var lastElement = null;
      var initialized = null;
      var tipGroup;
      function Init(evt)
      {
         SVGDocument = evt.target.ownerDocument;
         SVGRoot = SVGDocument.documentElement;
         TrueCoords = SVGRoot.createSVGPoint();
         initialized = evt;
      };
      function GetTrueCoords(evt)
      {
         var newScale = SVGRoot.currentScale;
         var translation = SVGRoot.currentTranslate;
         TrueCoords.x = (evt.clientX - translation.x)/newScale;
         TrueCoords.y = (evt.clientY - translation.y)/newScale;
      };
      function HideTooltip( evt )
      {
         if(initialized == null) {
           Init(evt);
         }
         if(tipGroup != null) {
           tipGroup.setAttributeNS(null, 'visibility', 'hidden');
         }
      };
      function ShowTooltip( evt )
      {
         if(initialized == null) {
           Init(evt);
         }
         GetTrueCoords( evt );
         var tipScale = 1/SVGRoot.currentScale;
         var targetElement = evt.currentTarget;
         if ( lastElement != targetElement )
         {
            var targetId = targetElement.getAttributeNS(null, 'id');
            var tipId = 'tooltip.' + targetId;
            tipGroup = SVGDocument.getElementById(tipId);
            var xPos = TrueCoords.x + (10 * tipScale);
            var yPos = TrueCoords.y + (10 * tipScale);
            tipGroup.setAttributeNS(null, 'transform', 'translate(' + xPos + ',' + yPos + ') scale(' + tipScale + ')');
            tipGroup.setAttributeNS(null, 'visibility', 'visible');
         }
      };
]]></script>
    </defs>
    <g id="y.node.0">
      <g fill="url(#linearGradient1)" text-rendering="geometricPrecision" shape-rendering="geometricPrecision" transform="matrix(1,0,0,1,-389,-696)" stroke="url(#linearGradient1)">
        <rect x="657.0638" y="729.1944" width="123" rx="20" ry="20" height="40" stroke="none"/>
      </g>
      <g stroke-linecap="butt" transform="matrix(1,0,0,1,-389,-696)" fill="gray" text-rendering="geometricPrecision" shape-rendering="geometricPrecision" stroke="gray" stroke-miterlimit="1.45">
        <rect x="657.0638" y="729.1944" fill="none" width="123" rx="20" ry="20" height="40"/>
      </g>
      <g>
        <g text-rendering="geometricPrecision" stroke-miterlimit="1.45" shape-rendering="geometricPrecision" font-family="sans-serif" transform="matrix(1,0,0,1,-389,-696)" stroke-linecap="butt">
          <text x="686.6214" xml:space="preserve" y="746.3644" stroke="none">Read CAN </text>
          <text x="661.3734" xml:space="preserve" y="760.3331" stroke="none">message from BUS</text>
        </g>
      </g>
    </g>
    <g id="y.node.1">
      <g fill="url(#linearGradient2)" text-rendering="geometricPrecision" shape-rendering="geometricPrecision" transform="matrix(1,0,0,1,-389,-696)" stroke="url(#linearGradient2)">
        <rect x="404.5638" y="812.4737" width="211" rx="20" ry="20" height="40" stroke="none"/>
      </g>
      <g stroke-linecap="butt" transform="matrix(1,0,0,1,-389,-696)" fill="gray" text-rendering="geometricPrecision" shape-rendering="geometricPrecision" stroke="gray" stroke-miterlimit="1.45">
        <rect x="404.5638" y="812.4737" fill="none" width="211" rx="20" ry="20" height="40"/>
      </g>
      <g>
        <g text-rendering="geometricPrecision" stroke-miterlimit="1.45" shape-rendering="geometricPrecision" font-family="sans-serif" transform="matrix(1,0,0,1,-389,-696)" stroke-linecap="butt">
          <text x="416.1995" xml:space="preserve" y="836.6281" stroke="none">Check Charging of other AMiRo</text>
        </g>
      </g>
    </g>
    <g id="y.node.2">
      <g fill="url(#linearGradient3)" text-rendering="geometricPrecision" shape-rendering="geometricPrecision" transform="matrix(1,0,0,1,-389,-696)" stroke="url(#linearGradient3)">
        <rect x="807.0638" y="834.753" width="123" rx="20" ry="20" height="40" stroke="none"/>
      </g>
      <g stroke-linecap="butt" transform="matrix(1,0,0,1,-389,-696)" fill="gray" text-rendering="geometricPrecision" shape-rendering="geometricPrecision" stroke="gray" stroke-miterlimit="1.45">
        <rect x="807.0638" y="834.753" fill="none" width="123" rx="20" ry="20" height="40"/>
      </g>
      <g>
        <g text-rendering="geometricPrecision" stroke-miterlimit="1.45" shape-rendering="geometricPrecision" font-family="sans-serif" transform="matrix(1,0,0,1,-389,-696)" stroke-linecap="butt">
          <text x="815.9612" xml:space="preserve" y="851.923" stroke="none">Propagate urgent</text>
          <text x="825.3304" xml:space="preserve" y="865.8917" stroke="none">charging need</text>
        </g>
      </g>
    </g>
    <g id="y.node.3">
      <g fill="url(#linearGradient4)" text-rendering="geometricPrecision" shape-rendering="geometricPrecision" transform="matrix(1,0,0,1,-389,-696)" stroke="url(#linearGradient4)">
        <rect x="641.5" y="920.6661" width="154" rx="20" ry="20" height="40" stroke="none"/>
      </g>
      <g stroke-linecap="butt" transform="matrix(1,0,0,1,-389,-696)" fill="gray" text-rendering="geometricPrecision" shape-rendering="geometricPrecision" stroke="gray" stroke-miterlimit="1.45">
        <rect x="641.5" y="920.6661" fill="none" width="154" rx="20" ry="20" height="40"/>
      </g>
      <g>
        <g text-rendering="geometricPrecision" stroke-miterlimit="1.45" shape-rendering="geometricPrecision" font-family="sans-serif" transform="matrix(1,0,0,1,-389,-696)" stroke-linecap="butt">
          <text x="679.9746" xml:space="preserve" y="944.8204" stroke="none">MoveToEdge</text>
        </g>
      </g>
    </g>
    <g id="y.node.4">
      <g fill="url(#linearGradient5)" text-rendering="geometricPrecision" shape-rendering="geometricPrecision" transform="matrix(1,0,0,1,-389,-696)" stroke="url(#linearGradient5)">
        <rect x="637.5" y="1000" width="165" rx="20" ry="20" height="40" stroke="none"/>
      </g>
      <g stroke-linecap="butt" transform="matrix(1,0,0,1,-389,-696)" fill="gray" text-rendering="geometricPrecision" shape-rendering="geometricPrecision" stroke="gray" stroke-miterlimit="1.45">
        <rect x="637.5" y="1000" fill="none" width="165" rx="20" ry="20" height="40"/>
      </g>
      <g>
        <g text-rendering="geometricPrecision" stroke-miterlimit="1.45" shape-rendering="geometricPrecision" font-family="sans-serif" transform="matrix(1,0,0,1,-389,-696)" stroke-linecap="butt">
          <text x="661.0195" xml:space="preserve" y="1024.1543" stroke="none">CheckChargingFree</text>
        </g>
      </g>
    </g>
    <g id="y.node.5">
      <g fill="url(#linearGradient6)" text-rendering="geometricPrecision" shape-rendering="geometricPrecision" transform="matrix(1,0,0,1,-389,-696)" stroke="url(#linearGradient6)">
        <rect x="638.3725" y="1120" width="165" rx="20" ry="20" height="40" stroke="none"/>
      </g>
      <g stroke-linecap="butt" transform="matrix(1,0,0,1,-389,-696)" fill="gray" text-rendering="geometricPrecision" shape-rendering="geometricPrecision" stroke="gray" stroke-miterlimit="1.45">
        <rect x="638.3725" y="1120" fill="none" width="165" rx="20" ry="20" height="40"/>
      </g>
      <g>
        <g text-rendering="geometricPrecision" stroke-miterlimit="1.45" shape-rendering="geometricPrecision" font-family="sans-serif" transform="matrix(1,0,0,1,-389,-696)" stroke-linecap="butt">
          <text x="648.893" xml:space="preserve" y="1144.1543" stroke="none">MoveToChargingStation</text>
        </g>
      </g>
    </g>
    <g onmouseout="HideTooltip(evt)" id="y.edge.0" onmousemove="ShowTooltip(evt)">
      <g text-rendering="geometricPrecision" stroke-miterlimit="1.45" shape-rendering="geometricPrecision" transform="matrix(1,0,0,1,-389,-696)" stroke-linecap="butt">
        <path fill="none" d="M657.0944 748.5786 L509.7475 747.6799 L509.9594 804.476"/>
      </g>
      <g text-rendering="geometricPrecision" stroke-miterlimit="1.45" shape-rendering="geometricPrecision" transform="matrix(1,0,0,1,-389,-696)" stroke-linecap="butt">
        <path d="M509.9892 812.476 L514.9444 800.4574 L509.9556 803.476 L504.9445 800.4947 Z" stroke="none"/>
      </g>
      <g>
        <g text-rendering="geometricPrecision" stroke-miterlimit="1.45" shape-rendering="geometricPrecision" font-family="sans-serif" transform="matrix(1,0,0,1,-389,-696)" stroke-linecap="butt">
          <text x="552.4437" xml:space="preserve" y="724.9909" stroke="none">&lt;10%</text>
        </g>
      </g>
    </g>
    <g id="y.edge.6">
      <g text-rendering="geometricPrecision" stroke-miterlimit="1.45" shape-rendering="geometricPrecision" transform="matrix(1,0,0,1,-389,-696)" stroke-linecap="butt">
        <path fill="none" d="M780.0526 749.5242 L868.7475 750 L868.6129 826.7282"/>
        <path d="M868.5989 834.7282 L873.6199 822.737 L868.6147 825.7282 L863.6199 822.7195 Z" stroke="none"/>
      </g>
      <g>
        <g text-rendering="geometricPrecision" stroke-miterlimit="1.45" shape-rendering="geometricPrecision" font-family="sans-serif" transform="matrix(1,0,0,1,-389,-696)" stroke-linecap="butt">
          <text x="833.1712" xml:space="preserve" y="732.6076" stroke="none">&lt;2%</text>
        </g>
      </g>
    </g>
    <g id="y.edge.1">
      <g text-rendering="geometricPrecision" stroke-miterlimit="1.45" shape-rendering="geometricPrecision" transform="matrix(1,0,0,1,-389,-696)" stroke-linecap="butt">
        <path fill="none" d="M615.5707 833.2628 L718.2819 834.0309 L718.4427 912.646"/>
        <path d="M718.459 920.646 L723.4345 908.6358 L718.4407 911.646 L713.4345 908.6562 Z" stroke="none"/>
      </g>
      <g>
        <g text-rendering="geometricPrecision" stroke-miterlimit="1.45" shape-rendering="geometricPrecision" font-family="sans-serif" transform="matrix(1,0,0,1,-389,-696)" stroke-linecap="butt">
          <text x="641.5754" xml:space="preserve" y="814.2702" stroke="none">&lt;15%</text>
        </g>
      </g>
    </g>
    <g id="y.edge.2">
      <g text-rendering="geometricPrecision" stroke-miterlimit="1.45" shape-rendering="geometricPrecision" transform="matrix(1,0,0,1,-389,-696)" stroke-linecap="butt">
        <path fill="none" d="M718.5571 769.155 L718.5093 912.6928"/>
        <path d="M718.5067 920.6928 L723.5107 908.6945 L718.5096 911.6928 L713.5107 908.6912 Z" stroke="none"/>
      </g>
      <g>
        <g text-rendering="geometricPrecision" stroke-miterlimit="1.45" shape-rendering="geometricPrecision" font-family="sans-serif" transform="matrix(1,0,0,1,-389,-696)" stroke-linecap="butt">
          <text x="734.001" xml:space="preserve" y="804.0846" stroke="none">&lt;5%</text>
        </g>
      </g>
    </g>
    <g id="y.edge.3">
      <g text-rendering="geometricPrecision" stroke-miterlimit="1.45" shape-rendering="geometricPrecision" transform="matrix(1,0,0,1,-389,-696)" stroke-linecap="butt">
        <path fill="none" d="M718.8787 960.6933 L719.4704 991.9912"/>
        <path d="M719.6216 999.9898 L724.3939 987.8974 L719.4515 990.9914 L714.3957 988.0865 Z" stroke="none"/>
      </g>
    </g>
    <g id="y.edge.5">
      <g text-rendering="geometricPrecision" stroke-miterlimit="1.45" shape-rendering="geometricPrecision" transform="matrix(1,0,0,1,-389,-696)" stroke-linecap="butt">
        <path fill="none" d="M720 1040.0098 L720 1080 L854.8552 1080 L854.8552 1020 L854.8552 1020 L810.4737 1020"/>
        <path d="M802.4737 1020 L814.4737 1025 L811.4737 1020 L814.4737 1015 Z" stroke="none"/>
      </g>
      <g>
        <g text-rendering="geometricPrecision" stroke-miterlimit="1.45" shape-rendering="geometricPrecision" font-family="sans-serif" transform="matrix(1,0,0,1,-389,-696)" stroke-linecap="butt">
          <text x="744.3978" xml:space="preserve" y="1071.6316" stroke="none">false</text>
        </g>
      </g>
    </g>
    <g id="y.edge.4">
      <g text-rendering="geometricPrecision" stroke-miterlimit="1.45" shape-rendering="geometricPrecision" transform="matrix(1,0,0,1,-389,-696)" stroke-linecap="butt">
        <path fill="none" d="M720.1455 1040.0098 L720.6691 1112.0315"/>
        <path d="M720.7273 1120.0312 L725.6399 1107.9952 L720.6619 1111.0315 L715.6402 1108.0679 Z" stroke="none"/>
      </g>
      <g>
        <g text-rendering="geometricPrecision" stroke-miterlimit="1.45" shape-rendering="geometricPrecision" font-family="sans-serif" transform="matrix(1,0,0,1,-389,-696)" stroke-linecap="butt">
          <text x="685.3577" xml:space="preserve" y="1100.6316" stroke="none">true</text>
        </g>
      </g>
    </g>
    <g visibility="hidden" id="tooltip.y.edge.0" pointer-events="none">
      <g fill="rgb(195,212,232)" text-rendering="geometricPrecision" shape-rendering="geometricPrecision" font-family="sans-serif" stroke="rgb(195,212,232)">
        <rect x="0" width="45" height="17" y="0" clip-path="url(#clipPath2)" stroke="none"/>
        <text fill="black" x="4" xml:space="preserve" y="13" clip-path="url(#clipPath2)" stroke="none">=30%</text>
      </g>
      <g fill="rgb(49,106,196)" text-rendering="geometricPrecision" shape-rendering="geometricPrecision" font-family="sans-serif" stroke="rgb(49,106,196)">
        <path d="M0 0 L45 0 L45 17 L0 17 L0 0 ZM1 1 L44 1 L44 16 L1 16 L1 1 Z" fill-rule="evenodd" clip-path="url(#clipPath2)" stroke="none"/>
      </g>
    </g>
  </g>
</svg>
