<?xml version="1.0" encoding="UTF-8"?><svg xmlns="http://www.w3.org/2000/svg" xmlns:xlink="http://www.w3.org/1999/xlink" fill-opacity="1" color-rendering="auto" color-interpolation="auto" text-rendering="auto" stroke="black" stroke-linecap="square" width="1050" stroke-miterlimit="10" shape-rendering="auto" stroke-opacity="1" fill="black" stroke-dasharray="none" font-weight="normal" stroke-width="1" height="800" font-family="'Dialog'" font-style="normal" stroke-linejoin="miter" font-size="12px" stroke-dashoffset="0" image-rendering="auto">
  <!--Generated by ySVG 2.5-->
  <defs id="genericDefs"/>
  <g>
    <defs id="defs1">
      <linearGradient x1="465" gradientUnits="userSpaceOnUse" x2="615" y1="100" y2="140" id="linearGradient1" spreadMethod="reflect">
        <stop stop-opacity="1" stop-color="rgb(232,238,247)" offset="0%"/>
        <stop stop-opacity="1" stop-color="rgb(245,159,0)" offset="100%"/>
      </linearGradient>
      <linearGradient x1="465" gradientUnits="userSpaceOnUse" x2="615" y1="220" y2="260" id="linearGradient2" spreadMethod="reflect">
        <stop stop-opacity="1" stop-color="rgb(232,238,247)" offset="0%"/>
        <stop stop-opacity="1" stop-color="rgb(245,159,0)" offset="100%"/>
      </linearGradient>
      <linearGradient x1="675" gradientUnits="userSpaceOnUse" x2="825" y1="100" y2="140" id="linearGradient3" spreadMethod="reflect">
        <stop stop-opacity="1" stop-color="rgb(232,238,247)" offset="0%"/>
        <stop stop-opacity="1" stop-color="rgb(245,159,0)" offset="100%"/>
      </linearGradient>
      <linearGradient x1="465" gradientUnits="userSpaceOnUse" x2="615" y1="280" y2="320" id="linearGradient4" spreadMethod="reflect">
        <stop stop-opacity="1" stop-color="rgb(232,238,247)" offset="0%"/>
        <stop stop-opacity="1" stop-color="rgb(245,159,0)" offset="100%"/>
      </linearGradient>
      <linearGradient x1="465" gradientUnits="userSpaceOnUse" x2="615" y1="400" y2="440" id="linearGradient5" spreadMethod="reflect">
        <stop stop-opacity="1" stop-color="rgb(232,238,247)" offset="0%"/>
        <stop stop-opacity="1" stop-color="rgb(245,159,0)" offset="100%"/>
      </linearGradient>
      <linearGradient x1="465" gradientUnits="userSpaceOnUse" x2="615" y1="460" y2="500" id="linearGradient6" spreadMethod="reflect">
        <stop stop-opacity="1" stop-color="rgb(232,238,247)" offset="0%"/>
        <stop stop-opacity="1" stop-color="rgb(245,159,0)" offset="100%"/>
      </linearGradient>
      <linearGradient x1="465" gradientUnits="userSpaceOnUse" x2="615" y1="520" y2="560" id="linearGradient7" spreadMethod="reflect">
        <stop stop-opacity="1" stop-color="rgb(232,238,247)" offset="0%"/>
        <stop stop-opacity="1" stop-color="rgb(245,159,0)" offset="100%"/>
      </linearGradient>
      <linearGradient x1="465" gradientUnits="userSpaceOnUse" x2="615" y1="580" y2="620" id="linearGradient8" spreadMethod="reflect">
        <stop stop-opacity="1" stop-color="rgb(232,238,247)" offset="0%"/>
        <stop stop-opacity="1" stop-color="rgb(245,159,0)" offset="100%"/>
      </linearGradient>
      <linearGradient x1="465" gradientUnits="userSpaceOnUse" x2="615" y1="640" y2="680" id="linearGradient9" spreadMethod="reflect">
        <stop stop-opacity="1" stop-color="rgb(232,238,247)" offset="0%"/>
        <stop stop-opacity="1" stop-color="rgb(245,159,0)" offset="100%"/>
      </linearGradient>
      <linearGradient x1="465" gradientUnits="userSpaceOnUse" x2="615" y1="700" y2="740" id="linearGradient10" spreadMethod="reflect">
        <stop stop-opacity="1" stop-color="rgb(232,238,247)" offset="0%"/>
        <stop stop-opacity="1" stop-color="rgb(245,159,0)" offset="100%"/>
      </linearGradient>
      <linearGradient x1="465" gradientUnits="userSpaceOnUse" x2="615" y1="760" y2="800" id="linearGradient11" spreadMethod="reflect">
        <stop stop-opacity="1" stop-color="rgb(232,238,247)" offset="0%"/>
        <stop stop-opacity="1" stop-color="rgb(245,159,0)" offset="100%"/>
      </linearGradient>
      <linearGradient x1="465" gradientUnits="userSpaceOnUse" x2="615" y1="340" y2="380" id="linearGradient12" spreadMethod="reflect">
        <stop stop-opacity="1" stop-color="rgb(232,238,247)" offset="0%"/>
        <stop stop-opacity="1" stop-color="rgb(245,159,0)" offset="100%"/>
      </linearGradient>
      <linearGradient x1="825" gradientUnits="userSpaceOnUse" x2="975" y1="430" y2="470" id="linearGradient13" spreadMethod="reflect">
        <stop stop-opacity="1" stop-color="rgb(232,238,247)" offset="0%"/>
        <stop stop-opacity="1" stop-color="rgb(245,159,0)" offset="100%"/>
      </linearGradient>
      <linearGradient x1="825" gradientUnits="userSpaceOnUse" x2="975" y1="310" y2="350" id="linearGradient14" spreadMethod="reflect">
        <stop stop-opacity="1" stop-color="rgb(232,238,247)" offset="0%"/>
        <stop stop-opacity="1" stop-color="rgb(245,159,0)" offset="100%"/>
      </linearGradient>
      <linearGradient x1="255" gradientUnits="userSpaceOnUse" x2="405" y1="100" y2="140" id="linearGradient15" spreadMethod="reflect">
        <stop stop-opacity="1" stop-color="rgb(232,238,247)" offset="0%"/>
        <stop stop-opacity="1" stop-color="rgb(245,159,0)" offset="100%"/>
      </linearGradient>
      <linearGradient x1="75" gradientUnits="userSpaceOnUse" x2="225" y1="100" y2="140" id="linearGradient16" spreadMethod="reflect">
        <stop stop-opacity="1" stop-color="rgb(232,238,247)" offset="0%"/>
        <stop stop-opacity="1" stop-color="rgb(245,159,0)" offset="100%"/>
      </linearGradient>
      <linearGradient x1="75" gradientUnits="userSpaceOnUse" x2="225" y1="190" y2="230" id="linearGradient17" spreadMethod="reflect">
        <stop stop-opacity="1" stop-color="rgb(232,238,247)" offset="0%"/>
        <stop stop-opacity="1" stop-color="rgb(245,159,0)" offset="100%"/>
      </linearGradient>
      <linearGradient x1="75" gradientUnits="userSpaceOnUse" x2="225" y1="250" y2="290" id="linearGradient18" spreadMethod="reflect">
        <stop stop-opacity="1" stop-color="rgb(232,238,247)" offset="0%"/>
        <stop stop-opacity="1" stop-color="rgb(245,159,0)" offset="100%"/>
      </linearGradient>
      <linearGradient x1="75" gradientUnits="userSpaceOnUse" x2="225" y1="310" y2="350" id="linearGradient19" spreadMethod="reflect">
        <stop stop-opacity="1" stop-color="rgb(232,238,247)" offset="0%"/>
        <stop stop-opacity="1" stop-color="rgb(245,159,0)" offset="100%"/>
      </linearGradient>
      <linearGradient x1="500" gradientUnits="userSpaceOnUse" x2="580" y1="40" y2="80" id="linearGradient20" spreadMethod="reflect">
        <stop stop-opacity="1" stop-color="rgb(232,238,247)" offset="0%"/>
        <stop stop-opacity="1" stop-color="rgb(245,159,0)" offset="100%"/>
      </linearGradient>
      <clipPath clipPathUnits="userSpaceOnUse" id="clipPath1">
        <path d="M0 0 L1050 0 L1050 800 L0 800 L0 0 Z"/>
      </clipPath>
      <clipPath clipPathUnits="userSpaceOnUse" id="clipPath2">
        <path d="M-15 25 L1035 25 L1035 825 L-15 825 L-15 25 Z"/>
      </clipPath>
    </defs>
    <g fill="url(#linearGradient1)" text-rendering="geometricPrecision" shape-rendering="geometricPrecision" transform="matrix(1,0,0,1,15,-25)" stroke="url(#linearGradient1)">
      <rect x="465" y="100" clip-path="url(#clipPath2)" width="150" rx="20" ry="20" height="40" stroke="none"/>
    </g>
    <g stroke-linecap="butt" transform="matrix(1,0,0,1,15,-25)" fill="gray" text-rendering="geometricPrecision" shape-rendering="geometricPrecision" stroke="gray" stroke-miterlimit="1.45">
      <rect x="465" y="100" clip-path="url(#clipPath2)" fill="none" width="150" rx="20" ry="20" height="40"/>
      <text x="529.166" y="124.1543" clip-path="url(#clipPath2)" fill="black" font-family="sans-serif" stroke="none" xml:space="preserve">idle</text>
    </g>
    <g fill="url(#linearGradient2)" text-rendering="geometricPrecision" shape-rendering="geometricPrecision" transform="matrix(1,0,0,1,15,-25)" stroke="url(#linearGradient2)">
      <rect x="465" y="220" clip-path="url(#clipPath2)" width="150" rx="20" ry="20" height="40" stroke="none"/>
    </g>
    <g stroke-linecap="butt" transform="matrix(1,0,0,1,15,-25)" fill="gray" text-rendering="geometricPrecision" shape-rendering="geometricPrecision" stroke="gray" stroke-miterlimit="1.45">
      <rect x="465" y="220" clip-path="url(#clipPath2)" fill="none" width="150" rx="20" ry="20" height="40"/>
      <text x="499.9424" y="244.1543" clip-path="url(#clipPath2)" fill="black" font-family="sans-serif" stroke="none" xml:space="preserve">startScenario</text>
    </g>
    <g fill="url(#linearGradient3)" text-rendering="geometricPrecision" shape-rendering="geometricPrecision" transform="matrix(1,0,0,1,15,-25)" stroke="url(#linearGradient3)">
      <rect x="675" y="100" clip-path="url(#clipPath2)" width="150" rx="20" ry="20" height="40" stroke="none"/>
    </g>
    <g stroke-linecap="butt" transform="matrix(1,0,0,1,15,-25)" fill="gray" text-rendering="geometricPrecision" shape-rendering="geometricPrecision" stroke="gray" stroke-miterlimit="1.45">
      <rect x="675" y="100" clip-path="url(#clipPath2)" fill="none" width="150" rx="20" ry="20" height="40"/>
      <text x="704.4814" y="124.1543" clip-path="url(#clipPath2)" fill="black" font-family="sans-serif" stroke="none" xml:space="preserve">cancelScenario</text>
    </g>
    <g fill="url(#linearGradient4)" text-rendering="geometricPrecision" shape-rendering="geometricPrecision" transform="matrix(1,0,0,1,15,-25)" stroke="url(#linearGradient4)">
      <rect x="465" y="280" clip-path="url(#clipPath2)" width="150" rx="20" ry="20" height="40" stroke="none"/>
    </g>
    <g stroke-linecap="butt" transform="matrix(1,0,0,1,15,-25)" fill="gray" text-rendering="geometricPrecision" shape-rendering="geometricPrecision" stroke="gray" stroke-miterlimit="1.45">
      <rect x="465" y="280" clip-path="url(#clipPath2)" fill="none" width="150" rx="20" ry="20" height="40"/>
      <text x="522.8057" y="304.1543" clip-path="url(#clipPath2)" fill="black" font-family="sans-serif" stroke="none" xml:space="preserve">ready</text>
    </g>
    <g fill="url(#linearGradient5)" text-rendering="geometricPrecision" shape-rendering="geometricPrecision" transform="matrix(1,0,0,1,15,-25)" stroke="url(#linearGradient5)">
      <rect x="465" y="400" clip-path="url(#clipPath2)" width="150" rx="20" ry="20" height="40" stroke="none"/>
    </g>
    <g stroke-linecap="butt" transform="matrix(1,0,0,1,15,-25)" fill="gray" text-rendering="geometricPrecision" shape-rendering="geometricPrecision" stroke="gray" stroke-miterlimit="1.45">
      <rect x="465" y="400" clip-path="url(#clipPath2)" fill="none" width="150" rx="20" ry="20" height="40"/>
      <text x="506.3848" y="424.1543" clip-path="url(#clipPath2)" fill="black" font-family="sans-serif" stroke="none" xml:space="preserve">localizeBall</text>
    </g>
    <g fill="url(#linearGradient6)" text-rendering="geometricPrecision" shape-rendering="geometricPrecision" transform="matrix(1,0,0,1,15,-25)" stroke="url(#linearGradient6)">
      <rect x="465" y="460" clip-path="url(#clipPath2)" width="150" rx="20" ry="20" height="40" stroke="none"/>
    </g>
    <g stroke-linecap="butt" transform="matrix(1,0,0,1,15,-25)" fill="gray" text-rendering="geometricPrecision" shape-rendering="geometricPrecision" stroke="gray" stroke-miterlimit="1.45">
      <rect x="465" y="460" clip-path="url(#clipPath2)" fill="none" width="150" rx="20" ry="20" height="40"/>
      <text x="504.7793" y="484.1543" clip-path="url(#clipPath2)" fill="black" font-family="sans-serif" stroke="none" xml:space="preserve">moveToBall</text>
    </g>
    <g fill="url(#linearGradient7)" text-rendering="geometricPrecision" shape-rendering="geometricPrecision" transform="matrix(1,0,0,1,15,-25)" stroke="url(#linearGradient7)">
      <rect x="465" y="520" clip-path="url(#clipPath2)" width="150" rx="20" ry="20" height="40" stroke="none"/>
    </g>
    <g stroke-linecap="butt" transform="matrix(1,0,0,1,15,-25)" fill="gray" text-rendering="geometricPrecision" shape-rendering="geometricPrecision" stroke="gray" stroke-miterlimit="1.45">
      <rect x="465" y="520" clip-path="url(#clipPath2)" fill="none" width="150" rx="20" ry="20" height="40"/>
      <text x="514.9453" y="544.1543" clip-path="url(#clipPath2)" fill="black" font-family="sans-serif" stroke="none" xml:space="preserve">findGoal</text>
    </g>
    <g fill="url(#linearGradient8)" text-rendering="geometricPrecision" shape-rendering="geometricPrecision" transform="matrix(1,0,0,1,15,-25)" stroke="url(#linearGradient8)">
      <rect x="465" y="580" clip-path="url(#clipPath2)" width="150" rx="20" ry="20" height="40" stroke="none"/>
    </g>
    <g stroke-linecap="butt" transform="matrix(1,0,0,1,15,-25)" fill="gray" text-rendering="geometricPrecision" shape-rendering="geometricPrecision" stroke="gray" stroke-miterlimit="1.45">
      <rect x="465" y="580" clip-path="url(#clipPath2)" fill="none" width="150" rx="20" ry="20" height="40"/>
      <text x="465.7471" y="604.1543" clip-path="url(#clipPath2)" fill="black" font-family="sans-serif" stroke="none" xml:space="preserve">moveToShootingPosition</text>
    </g>
    <g fill="url(#linearGradient9)" text-rendering="geometricPrecision" shape-rendering="geometricPrecision" transform="matrix(1,0,0,1,15,-25)" stroke="url(#linearGradient9)">
      <rect x="465" y="640" clip-path="url(#clipPath2)" width="150" rx="20" ry="20" height="40" stroke="none"/>
    </g>
    <g stroke-linecap="butt" transform="matrix(1,0,0,1,15,-25)" fill="gray" text-rendering="geometricPrecision" shape-rendering="geometricPrecision" stroke="gray" stroke-miterlimit="1.45">
      <rect x="465" y="640" clip-path="url(#clipPath2)" fill="none" width="150" rx="20" ry="20" height="40"/>
      <text x="512.25" y="664.1543" clip-path="url(#clipPath2)" fill="black" font-family="sans-serif" stroke="none" xml:space="preserve">shootBall</text>
    </g>
    <g fill="url(#linearGradient10)" text-rendering="geometricPrecision" shape-rendering="geometricPrecision" transform="matrix(1,0,0,1,15,-25)" stroke="url(#linearGradient10)">
      <rect x="465" y="700" clip-path="url(#clipPath2)" width="150" rx="20" ry="20" height="40" stroke="none"/>
    </g>
    <g stroke-linecap="butt" transform="matrix(1,0,0,1,15,-25)" fill="gray" text-rendering="geometricPrecision" shape-rendering="geometricPrecision" stroke="gray" stroke-miterlimit="1.45">
      <rect x="465" y="700" clip-path="url(#clipPath2)" fill="none" width="150" rx="20" ry="20" height="40"/>
      <text x="493.3418" y="724.1543" clip-path="url(#clipPath2)" fill="black" font-family="sans-serif" stroke="none" xml:space="preserve">waitForBallRest</text>
    </g>
    <g fill="url(#linearGradient11)" text-rendering="geometricPrecision" shape-rendering="geometricPrecision" transform="matrix(1,0,0,1,15,-25)" stroke="url(#linearGradient11)">
      <rect x="465" y="760" clip-path="url(#clipPath2)" width="150" rx="20" ry="20" height="40" stroke="none"/>
    </g>
    <g stroke-linecap="butt" transform="matrix(1,0,0,1,15,-25)" fill="gray" text-rendering="geometricPrecision" shape-rendering="geometricPrecision" stroke="gray" stroke-miterlimit="1.45">
      <rect x="465" y="760" clip-path="url(#clipPath2)" fill="none" width="150" rx="20" ry="20" height="40"/>
      <text x="463.998" y="784.1543" clip-path="url(#clipPath2)" fill="black" font-family="sans-serif" stroke="none" xml:space="preserve">giveHandleToOtherAmiro</text>
    </g>
    <g fill="url(#linearGradient12)" text-rendering="geometricPrecision" shape-rendering="geometricPrecision" transform="matrix(1,0,0,1,15,-25)" stroke="url(#linearGradient12)">
      <rect x="465" y="340" clip-path="url(#clipPath2)" width="150" rx="20" ry="20" height="40" stroke="none"/>
    </g>
    <g stroke-linecap="butt" transform="matrix(1,0,0,1,15,-25)" fill="gray" text-rendering="geometricPrecision" shape-rendering="geometricPrecision" stroke="gray" stroke-miterlimit="1.45">
      <rect x="465" y="340" clip-path="url(#clipPath2)" fill="none" width="150" rx="20" ry="20" height="40"/>
      <text x="504.0703" y="364.1543" clip-path="url(#clipPath2)" fill="black" font-family="sans-serif" stroke="none" xml:space="preserve">waitForTurn</text>
    </g>
    <g fill="url(#linearGradient13)" text-rendering="geometricPrecision" shape-rendering="geometricPrecision" transform="matrix(1,0,0,1,15,-25)" stroke="url(#linearGradient13)">
      <rect x="825" y="430" clip-path="url(#clipPath2)" width="150" rx="20" ry="20" height="40" stroke="none"/>
    </g>
    <g stroke-linecap="butt" transform="matrix(1,0,0,1,15,-25)" fill="gray" text-rendering="geometricPrecision" shape-rendering="geometricPrecision" stroke="gray" stroke-miterlimit="1.45">
      <rect x="825" y="430" clip-path="url(#clipPath2)" fill="none" width="150" rx="20" ry="20" height="40"/>
      <text x="826.9277" y="454.1543" clip-path="url(#clipPath2)" fill="black" font-family="sans-serif" stroke="none" xml:space="preserve">waitForOtherAmiroMove</text>
    </g>
    <g fill="url(#linearGradient14)" text-rendering="geometricPrecision" shape-rendering="geometricPrecision" transform="matrix(1,0,0,1,15,-25)" stroke="url(#linearGradient14)">
      <rect x="825" y="310" clip-path="url(#clipPath2)" width="150" rx="20" ry="20" height="40" stroke="none"/>
    </g>
    <g stroke-linecap="butt" transform="matrix(1,0,0,1,15,-25)" fill="gray" text-rendering="geometricPrecision" shape-rendering="geometricPrecision" stroke="gray" stroke-miterlimit="1.45">
      <rect x="825" y="310" clip-path="url(#clipPath2)" fill="none" width="150" rx="20" ry="20" height="40"/>
      <text x="856.6816" y="334.1543" clip-path="url(#clipPath2)" fill="black" font-family="sans-serif" stroke="none" xml:space="preserve">moveFromBall</text>
    </g>
    <g fill="url(#linearGradient15)" text-rendering="geometricPrecision" shape-rendering="geometricPrecision" transform="matrix(1,0,0,1,15,-25)" stroke="url(#linearGradient15)">
      <rect x="255" y="100" clip-path="url(#clipPath2)" width="150" rx="20" ry="20" height="40" stroke="none"/>
    </g>
    <g stroke-linecap="butt" transform="matrix(1,0,0,1,15,-25)" fill="gray" text-rendering="geometricPrecision" shape-rendering="geometricPrecision" stroke="gray" stroke-miterlimit="1.45">
      <rect x="255" y="100" clip-path="url(#clipPath2)" fill="none" width="150" rx="20" ry="20" height="40"/>
      <text x="290.8066" y="124.1543" clip-path="url(#clipPath2)" fill="black" font-family="sans-serif" stroke="none" xml:space="preserve">moveToEdge</text>
    </g>
    <g fill="url(#linearGradient16)" text-rendering="geometricPrecision" shape-rendering="geometricPrecision" transform="matrix(1,0,0,1,15,-25)" stroke="url(#linearGradient16)">
      <rect x="75" y="100" clip-path="url(#clipPath2)" width="150" rx="20" ry="20" height="40" stroke="none"/>
    </g>
    <g stroke-linecap="butt" transform="matrix(1,0,0,1,15,-25)" fill="gray" text-rendering="geometricPrecision" shape-rendering="geometricPrecision" stroke="gray" stroke-miterlimit="1.45">
      <rect x="75" y="100" clip-path="url(#clipPath2)" fill="none" width="150" rx="20" ry="20" height="40"/>
      <text x="106.5615" y="124.1543" clip-path="url(#clipPath2)" fill="black" font-family="sans-serif" stroke="none" xml:space="preserve">waitingAtEdge</text>
    </g>
    <g fill="url(#linearGradient17)" text-rendering="geometricPrecision" shape-rendering="geometricPrecision" transform="matrix(1,0,0,1,15,-25)" stroke="url(#linearGradient17)">
      <rect x="75" y="190" clip-path="url(#clipPath2)" width="150" rx="20" ry="20" height="40" stroke="none"/>
    </g>
    <g stroke-linecap="butt" transform="matrix(1,0,0,1,15,-25)" fill="gray" text-rendering="geometricPrecision" shape-rendering="geometricPrecision" stroke="gray" stroke-miterlimit="1.45">
      <rect x="75" y="190" clip-path="url(#clipPath2)" fill="none" width="150" rx="20" ry="20" height="40"/>
      <text x="98.6836" y="214.1543" clip-path="url(#clipPath2)" fill="black" font-family="sans-serif" stroke="none" xml:space="preserve">moveToCharging</text>
    </g>
    <g fill="url(#linearGradient18)" text-rendering="geometricPrecision" shape-rendering="geometricPrecision" transform="matrix(1,0,0,1,15,-25)" stroke="url(#linearGradient18)">
      <rect x="75" y="250" clip-path="url(#clipPath2)" width="150" rx="20" ry="20" height="40" stroke="none"/>
    </g>
    <g stroke-linecap="butt" transform="matrix(1,0,0,1,15,-25)" fill="gray" text-rendering="geometricPrecision" shape-rendering="geometricPrecision" stroke="gray" stroke-miterlimit="1.45">
      <rect x="75" y="250" clip-path="url(#clipPath2)" fill="none" width="150" rx="20" ry="20" height="40"/>
      <text x="100.3154" y="274.1543" clip-path="url(#clipPath2)" fill="black" font-family="sans-serif" stroke="none" xml:space="preserve">moveIntoStation</text>
    </g>
    <g fill="url(#linearGradient19)" text-rendering="geometricPrecision" shape-rendering="geometricPrecision" transform="matrix(1,0,0,1,15,-25)" stroke="url(#linearGradient19)">
      <rect x="75" y="310" clip-path="url(#clipPath2)" width="150" rx="20" ry="20" height="40" stroke="none"/>
    </g>
    <g stroke-linecap="butt" transform="matrix(1,0,0,1,15,-25)" fill="gray" text-rendering="geometricPrecision" shape-rendering="geometricPrecision" stroke="gray" stroke-miterlimit="1.45">
      <rect x="75" y="310" clip-path="url(#clipPath2)" fill="none" width="150" rx="20" ry="20" height="40"/>
      <text x="123.668" y="334.1543" clip-path="url(#clipPath2)" fill="black" font-family="sans-serif" stroke="none" xml:space="preserve">charging</text>
    </g>
    <g fill="url(#linearGradient20)" text-rendering="geometricPrecision" shape-rendering="geometricPrecision" transform="matrix(1,0,0,1,15,-25)" stroke="url(#linearGradient20)">
      <circle r="20" clip-path="url(#clipPath2)" cx="540" cy="60" stroke="none"/>
    </g>
    <g text-rendering="geometricPrecision" stroke-miterlimit="1.45" shape-rendering="geometricPrecision" transform="matrix(1,0,0,1,15,-25)" stroke-linecap="butt">
      <circle fill="none" r="20" clip-path="url(#clipPath2)" cx="540" cy="60"/>
    </g>
    <g text-rendering="geometricPrecision" stroke-miterlimit="1.45" shape-rendering="geometricPrecision" transform="matrix(1,0,0,1,15,-25)" stroke-linecap="butt">
      <path fill="none" d="M540 140.0098 L540 212.0312" clip-path="url(#clipPath2)"/>
    </g>
    <g text-rendering="geometricPrecision" stroke-miterlimit="1.45" shape-rendering="geometricPrecision" transform="matrix(1,0,0,1,15,-25)" stroke-linecap="butt">
      <path d="M540 220.0312 L545 208.0312 L540 211.0312 L535 208.0312 Z" stroke="none" clip-path="url(#clipPath2)"/>
      <path fill="none" d="M675.0183 120 L622.9919 120" clip-path="url(#clipPath2)"/>
      <path d="M614.9919 120 L626.9919 125 L623.9919 120 L626.9919 115 Z" clip-path="url(#clipPath2)" stroke="none"/>
      <path fill="none" d="M540 260.0098 L540 271.9658" clip-path="url(#clipPath2)"/>
      <path d="M540 279.9658 L545 267.9658 L540 270.9658 L535 267.9658 Z" clip-path="url(#clipPath2)" stroke="none"/>
      <path fill="none" d="M614.9707 300 L780 300 L780 147.9761" clip-path="url(#clipPath2)"/>
      <path d="M780 139.9761 L775 151.9761 L780 148.9761 L785 151.9761 Z" clip-path="url(#clipPath2)" stroke="none"/>
      <path fill="none" d="M614.9707 420 L780 420 L780 148.0085" clip-path="url(#clipPath2)"/>
      <path d="M780 140.0085 L775 152.0085 L780 149.0085 L785 152.0085 Z" clip-path="url(#clipPath2)" stroke="none"/>
      <path fill="none" d="M540 440.0098 L540 451.9658" clip-path="url(#clipPath2)"/>
      <path d="M540 459.9658 L545 447.9658 L540 450.9658 L535 447.9658 Z" clip-path="url(#clipPath2)" stroke="none"/>
      <path fill="none" d="M614.9707 480 L780 480 L780 148.0386" clip-path="url(#clipPath2)"/>
      <path d="M780 140.0386 L775 152.0386 L780 149.0386 L785 152.0386 Z" clip-path="url(#clipPath2)" stroke="none"/>
      <path fill="none" d="M540 500.0098 L540 511.9658" clip-path="url(#clipPath2)"/>
      <path d="M540 519.9658 L545 507.9658 L540 510.9658 L535 507.9658 Z" clip-path="url(#clipPath2)" stroke="none"/>
      <path fill="none" d="M614.9707 540 L780 540 L780 148.0221" clip-path="url(#clipPath2)"/>
      <path d="M780 140.0221 L775 152.0221 L780 149.0221 L785 152.0221 Z" clip-path="url(#clipPath2)" stroke="none"/>
      <path fill="none" d="M540 560.0098 L540 571.9658" clip-path="url(#clipPath2)"/>
      <path d="M540 579.9658 L545 567.9658 L540 570.9658 L535 567.9658 Z" clip-path="url(#clipPath2)" stroke="none"/>
      <path fill="none" d="M614.9707 600 L780 600 L780 148.0239" clip-path="url(#clipPath2)"/>
      <path d="M780 140.0239 L775 152.0239 L780 149.0239 L785 152.0239 Z" clip-path="url(#clipPath2)" stroke="none"/>
      <path fill="none" d="M540 620.0098 L540 631.9658" clip-path="url(#clipPath2)"/>
      <path d="M540 639.9658 L545 627.9658 L540 630.9658 L535 627.9658 Z" clip-path="url(#clipPath2)" stroke="none"/>
      <path fill="none" d="M614.9707 660 L780 660 L780 147.9989" clip-path="url(#clipPath2)"/>
      <path d="M780 139.9989 L775 151.9989 L780 148.9989 L785 151.9989 Z" clip-path="url(#clipPath2)" stroke="none"/>
      <path fill="none" d="M540 680.0098 L540 691.9658" clip-path="url(#clipPath2)"/>
      <path d="M540 699.9658 L545 687.9658 L540 690.9658 L535 687.9658 Z" clip-path="url(#clipPath2)" stroke="none"/>
      <path fill="none" d="M614.9707 720 L780 720 L780 148.0026" clip-path="url(#clipPath2)"/>
      <path d="M780 140.0026 L775 152.0026 L780 149.0026 L785 152.0026 Z" clip-path="url(#clipPath2)" stroke="none"/>
      <path fill="none" d="M540 740.0098 L540 751.9658" clip-path="url(#clipPath2)"/>
      <path d="M540 759.9658 L545 747.9658 L540 750.9658 L535 747.9658 Z" clip-path="url(#clipPath2)" stroke="none"/>
      <path fill="none" d="M540 320.0098 L540 331.9658" clip-path="url(#clipPath2)"/>
      <path d="M540 339.9658 L545 327.9658 L540 330.9658 L535 327.9658 Z" clip-path="url(#clipPath2)" stroke="none"/>
      <path fill="none" d="M614.9707 780 L660 780 L660 390 L614.0014 378.5003" clip-path="url(#clipPath2)"/>
      <path d="M606.2402 376.5601 L616.6693 384.3212 L614.9715 378.7429 L619.0946 374.6198 Z" clip-path="url(#clipPath2)" stroke="none"/>
      <path fill="none" d="M540 380.0098 L540 391.9658" clip-path="url(#clipPath2)"/>
      <path d="M540 399.9658 L545 387.9658 L540 390.9658 L535 387.9658 Z" clip-path="url(#clipPath2)" stroke="none"/>
      <path fill="none" d="M614.9707 360 L780 360 L780 147.9757" clip-path="url(#clipPath2)"/>
      <path d="M780 139.9757 L775 151.9757 L780 148.9757 L785 151.9757 Z" clip-path="url(#clipPath2)" stroke="none"/>
      <path fill="none" d="M614.0479 426.1707 L817.9915 443.166" clip-path="url(#clipPath2)"/>
      <path d="M825.9638 443.8303 L814.4205 437.851 L816.9949 443.0829 L813.59 447.8165 Z" clip-path="url(#clipPath2)" stroke="none"/>
      <path fill="none" d="M825.9521 443.8293 L622.0085 426.834" clip-path="url(#clipPath2)"/>
      <path d="M614.0362 426.1697 L625.5795 432.149 L623.0051 426.9171 L626.41 422.1835 Z" clip-path="url(#clipPath2)" stroke="none"/>
      <path fill="none" d="M900 429.9902 L900 390 L990 390 L990 120 L832.989 120.7477" clip-path="url(#clipPath2)"/>
      <path d="M824.989 120.7858 L837.0127 125.7286 L833.9889 120.7429 L836.9651 115.7287 Z" clip-path="url(#clipPath2)" stroke="none"/>
      <path fill="none" d="M614.0479 353.8293 L817.9915 336.834" clip-path="url(#clipPath2)"/>
      <path d="M825.9638 336.1697 L813.59 332.1835 L816.9949 336.9171 L814.4205 342.149 Z" clip-path="url(#clipPath2)" stroke="none"/>
      <path fill="none" d="M825.9521 336.1707 L622.0085 353.166" clip-path="url(#clipPath2)"/>
      <path d="M614.0362 353.8303 L626.41 357.8165 L623.0051 353.0829 L625.5795 347.851 Z" clip-path="url(#clipPath2)" stroke="none"/>
      <path fill="none" d="M975.0146 330 L990 330 L990 120 L832.9707 120" clip-path="url(#clipPath2)"/>
      <path d="M824.9707 120 L836.9707 125 L833.9707 120 L836.9707 115 Z" clip-path="url(#clipPath2)" stroke="none"/>
      <path fill="none" d="M465.0183 120 L412.9919 120" clip-path="url(#clipPath2)"/>
      <path d="M404.9919 120 L416.9919 125 L413.9919 120 L416.9919 115 Z" clip-path="url(#clipPath2)" stroke="none"/>
      <path fill="none" d="M465.0183 300 L330 300 L330 147.9951" clip-path="url(#clipPath2)"/>
      <path d="M330 139.9951 L325 151.9951 L330 148.9951 L335 151.9951 Z" clip-path="url(#clipPath2)" stroke="none"/>
      <path fill="none" d="M465.0183 240 L330 240 L330 148.0098" clip-path="url(#clipPath2)"/>
      <path d="M330 140.0098 L325 152.0098 L330 149.0098 L335 152.0098 Z" clip-path="url(#clipPath2)" stroke="none"/>
      <path fill="none" d="M750 140.0098 L750 180 L330 180 L330 148.0098" clip-path="url(#clipPath2)"/>
      <path d="M330 140.0098 L325 152.0098 L330 149.0098 L335 152.0098 Z" clip-path="url(#clipPath2)" stroke="none"/>
      <path fill="none" d="M465.0183 420 L330 420 L330 148.0317" clip-path="url(#clipPath2)"/>
      <path d="M330 140.0317 L325 152.0317 L330 149.0317 L335 152.0317 Z" clip-path="url(#clipPath2)" stroke="none"/>
      <path fill="none" d="M465.0183 480 L330 480 L330 147.9951" clip-path="url(#clipPath2)"/>
      <path d="M330 139.9951 L325 151.9951 L330 148.9951 L335 151.9951 Z" clip-path="url(#clipPath2)" stroke="none"/>
      <path fill="none" d="M465.0183 540 L330 540 L330 148.0208" clip-path="url(#clipPath2)"/>
      <path d="M330 140.0208 L325 152.0208 L330 149.0208 L335 152.0208 Z" clip-path="url(#clipPath2)" stroke="none"/>
      <path fill="none" d="M465.0183 600 L330 600 L330 148.0098" clip-path="url(#clipPath2)"/>
      <path d="M330 140.0098 L325 152.0098 L330 149.0098 L335 152.0098 Z" clip-path="url(#clipPath2)" stroke="none"/>
      <path fill="none" d="M465.0183 660 L330 660 L330 148.0061" clip-path="url(#clipPath2)"/>
      <path d="M330 140.0061 L325 152.0061 L330 149.0061 L335 152.0061 Z" clip-path="url(#clipPath2)" stroke="none"/>
      <path fill="none" d="M465.0183 720 L330 720 L330 148.0317" clip-path="url(#clipPath2)"/>
      <path d="M330 140.0317 L325 152.0317 L330 149.0317 L335 152.0317 Z" clip-path="url(#clipPath2)" stroke="none"/>
      <path fill="none" d="M465.0183 360 L330 360 L330 148.0098" clip-path="url(#clipPath2)"/>
      <path d="M330 140.0098 L325 152.0098 L330 149.0098 L335 152.0098 Z" clip-path="url(#clipPath2)" stroke="none"/>
      <path fill="none" d="M900 469.9951 L900 810 L330 810 L330 148.0043" clip-path="url(#clipPath2)"/>
      <path d="M330 140.0043 L325 152.0043 L330 149.0043 L335 152.0043 Z" clip-path="url(#clipPath2)" stroke="none"/>
      <path fill="none" d="M966.2402 346.5601 L1020 360 L1020 810 L330 810 L330 148.0043" clip-path="url(#clipPath2)"/>
      <path d="M330 140.0043 L325 152.0043 L330 149.0043 L335 152.0043 Z" clip-path="url(#clipPath2)" stroke="none"/>
      <path fill="none" d="M254.9854 120 L233.0225 120" clip-path="url(#clipPath2)"/>
      <path d="M225.0225 120 L237.0225 125 L234.0225 120 L237.0225 115 Z" clip-path="url(#clipPath2)" stroke="none"/>
      <path fill="none" d="M150 139.9951 L150 182.0035" clip-path="url(#clipPath2)"/>
      <path d="M150 190.0035 L155 178.0035 L150 181.0035 L145 178.0035 Z" clip-path="url(#clipPath2)" stroke="none"/>
      <path fill="none" d="M150 230.0098 L150 241.9658" clip-path="url(#clipPath2)"/>
      <path d="M150 249.9658 L155 237.9658 L150 240.9658 L145 237.9658 Z" clip-path="url(#clipPath2)" stroke="none"/>
      <path fill="none" d="M150 290.0098 L150 301.9658" clip-path="url(#clipPath2)"/>
      <path d="M150 309.9658 L155 297.9658 L150 300.9658 L145 297.9658 Z" clip-path="url(#clipPath2)" stroke="none"/>
      <path fill="none" d="M150 350.0098 L150 360 L0 360 L0 90 L450 90 L473.5677 97.8559" clip-path="url(#clipPath2)"/>
      <path d="M481.1572 100.3857 L471.3542 91.8476 L472.6191 97.5397 L468.1919 101.3344 Z" clip-path="url(#clipPath2)" stroke="none"/>
      <path fill="none" d="M74.9707 330 L30 330 L30 120 L66.9707 120" clip-path="url(#clipPath2)"/>
      <path d="M74.9707 120 L62.9707 115 L65.9707 120 L62.9707 125 Z" clip-path="url(#clipPath2)" stroke="none"/>
      <path fill="none" d="M540 80.0098 L540 91.9658" clip-path="url(#clipPath2)"/>
      <path d="M540 99.9658 L545 87.9658 L540 90.9658 L535 87.9658 Z" clip-path="url(#clipPath2)" stroke="none"/>
    </g>
  </g>
</svg>
